<?xml version="1.0" encoding="us-ascii" standalone="no"?><svg xmlns="http://www.w3.org/2000/svg" xmlns:xlink="http://www.w3.org/1999/xlink" contentStyleType="text/css" height="355px" preserveAspectRatio="none" style="width:1191px;height:355px;background:#FFFFFF;" version="1.1" viewBox="0 0 1191 355" width="1191px" zoomAndPan="magnify"><defs/><g><!--class ArgParser--><g id="elem_ArgParser"><rect codeLine="4" fill="#F1F1F1" height="80.5938" id="ArgParser" rx="2.5" ry="2.5" style="stroke:#181818;stroke-width:0.5;" width="247" x="7" y="137"/><ellipse cx="92.75" cy="153" fill="#ADD1B2" rx="11" ry="11" style="stroke:#181818;stroke-width:1.0;"/><path d="M95.7188,158.6406 Q95.1406,158.9375 94.5,159.0781 Q93.8594,159.2344 93.1563,159.2344 Q90.6563,159.2344 89.3281,157.5938 Q88.0156,155.9375 88.0156,152.8125 Q88.0156,149.6875 89.3281,148.0313 Q90.6563,146.375 93.1563,146.375 Q93.8594,146.375 94.5,146.5313 Q95.1563,146.6875 95.7188,146.9844 L95.7188,149.7031 Q95.0938,149.125 94.5,148.8594 Q93.9063,148.5781 93.2813,148.5781 Q91.9375,148.5781 91.25,149.6563 Q90.5625,150.7188 90.5625,152.8125 Q90.5625,154.9063 91.25,155.9844 Q91.9375,157.0469 93.2813,157.0469 Q93.9063,157.0469 94.5,156.7813 Q95.0938,156.5 95.7188,155.9219 L95.7188,158.6406 Z " fill="#000000"/><text fill="#000000" font-family="sans-serif" font-size="14" lengthAdjust="spacing" textLength="67" x="113.25" y="157.8467">ArgParser</text><line style="stroke:#181818;stroke-width:0.5;" x1="8" x2="253" y1="169" y2="169"/><line style="stroke:#181818;stroke-width:0.5;" x1="8" x2="253" y1="177" y2="177"/><text fill="#000000" font-family="sans-serif" font-size="14" lengthAdjust="spacing" text-decoration="underline" textLength="235" x="13" y="193.9951">parse(int, char *[]) : SnifferOptions</text><text fill="#000000" font-family="sans-serif" font-size="14" lengthAdjust="spacing" text-decoration="underline" textLength="81" x="13" y="210.292">help() : void</text></g><!--class Cmuchator--><g id="elem_Cmuchator"><rect codeLine="9" fill="#F1F1F1" height="341.3438" id="Cmuchator" rx="2.5" ry="2.5" style="stroke:#181818;stroke-width:0.5;" width="586" x="333.5" y="7"/><ellipse cx="584.25" cy="23" fill="#ADD1B2" rx="11" ry="11" style="stroke:#181818;stroke-width:1.0;"/><path d="M587.2188,28.6406 Q586.6406,28.9375 586,29.0781 Q585.3594,29.2344 584.6563,29.2344 Q582.1563,29.2344 580.8281,27.5938 Q579.5156,25.9375 579.5156,22.8125 Q579.5156,19.6875 580.8281,18.0313 Q582.1563,16.375 584.6563,16.375 Q585.3594,16.375 586,16.5313 Q586.6563,16.6875 587.2188,16.9844 L587.2188,19.7031 Q586.5938,19.125 586,18.8594 Q585.4063,18.5781 584.7813,18.5781 Q583.4375,18.5781 582.75,19.6563 Q582.0625,20.7188 582.0625,22.8125 Q582.0625,24.9063 582.75,25.9844 Q583.4375,27.0469 584.7813,27.0469 Q585.4063,27.0469 586,26.7813 Q586.5938,26.5 587.2188,25.9219 L587.2188,28.6406 Z " fill="#000000"/><text fill="#000000" font-family="sans-serif" font-size="14" lengthAdjust="spacing" textLength="76" x="604.75" y="27.8467">Cmuchator</text><line style="stroke:#181818;stroke-width:0.5;" x1="334.5" x2="918.5" y1="39" y2="39"/><rect fill="none" height="6" style="stroke:#C82930;stroke-width:1.0;" width="6" x="341.5" y="49.6484"/><text fill="#000000" font-family="sans-serif" font-size="14" lengthAdjust="spacing" textLength="162" x="353.5" y="55.9951">options : SnifferOptions</text><rect fill="none" height="6" style="stroke:#C82930;stroke-width:1.0;" width="6" x="341.5" y="65.9453"/><text fill="#000000" font-family="sans-serif" font-size="14" lengthAdjust="spacing" textLength="113" x="353.5" y="72.292">handle : pcap_t*</text><rect fill="none" height="6" style="stroke:#C82930;stroke-width:1.0;" width="6" x="341.5" y="82.2422"/><text fill="#000000" font-family="sans-serif" font-size="14" lengthAdjust="spacing" text-decoration="underline" textLength="121" x="353.5" y="88.5889">inst : Cmuchator*</text><rect fill="none" height="6" style="stroke:#C82930;stroke-width:1.0;" width="6" x="341.5" y="98.5391"/><text fill="#000000" font-family="sans-serif" font-size="14" lengthAdjust="spacing" textLength="81" x="353.5" y="104.8857">filter : string</text><line style="stroke:#181818;stroke-width:0.5;" x1="334.5" x2="918.5" y1="112.1875" y2="112.1875"/><ellipse cx="344.5" cy="125.8359" fill="#84BE84" rx="3" ry="3" style="stroke:#038048;stroke-width:1.0;"/><text fill="#000000" font-family="sans-serif" font-size="14" lengthAdjust="spacing" textLength="248" x="353.5" y="129.1826">Cmuchator(options : SnifferOptions)</text><ellipse cx="344.5" cy="142.1328" fill="#84BE84" rx="3" ry="3" style="stroke:#038048;stroke-width:1.0;"/><text fill="#000000" font-family="sans-serif" font-size="14" lengthAdjust="spacing" textLength="98" x="353.5" y="145.4795">~Cmuchator()</text><ellipse cx="344.5" cy="158.4297" fill="#84BE84" rx="3" ry="3" style="stroke:#038048;stroke-width:1.0;"/><text fill="#000000" font-family="sans-serif" font-size="14" lengthAdjust="spacing" textLength="269" x="353.5" y="161.7764">addFilter(filter : string, op : string) : void</text><ellipse cx="344.5" cy="174.7266" fill="#84BE84" rx="3" ry="3" style="stroke:#038048;stroke-width:1.0;"/><text fill="#000000" font-family="sans-serif" font-size="14" lengthAdjust="spacing" textLength="118" x="353.5" y="178.0732">addFilters() : void</text><ellipse cx="344.5" cy="191.0234" fill="#84BE84" rx="3" ry="3" style="stroke:#038048;stroke-width:1.0;"/><text fill="#000000" font-family="sans-serif" font-size="14" lengthAdjust="spacing" textLength="81" x="353.5" y="194.3701">loop() : void</text><ellipse cx="344.5" cy="207.3203" fill="#84BE84" rx="3" ry="3" style="stroke:#038048;stroke-width:1.0;"/><text fill="#000000" font-family="sans-serif" font-size="14" lengthAdjust="spacing" textLength="497" x="353.5" y="210.667">gotPacket(user : u_char*, header : pcap_pkthdr, packet : u_char*) : bool</text><ellipse cx="344.5" cy="223.6172" fill="#84BE84" rx="3" ry="3" style="stroke:#038048;stroke-width:1.0;"/><text fill="#000000" font-family="sans-serif" font-size="14" lengthAdjust="spacing" textLength="340" x="353.5" y="226.9639">printPacketTimestamp(timestamp : timeval) : void</text><ellipse cx="344.5" cy="239.9141" fill="#84BE84" rx="3" ry="3" style="stroke:#038048;stroke-width:1.0;"/><text fill="#000000" font-family="sans-serif" font-size="14" lengthAdjust="spacing" textLength="297" x="353.5" y="243.2607">printMacAddresses(packet : u_char*) : void</text><ellipse cx="344.5" cy="256.2109" fill="#84BE84" rx="3" ry="3" style="stroke:#038048;stroke-width:1.0;"/><text fill="#000000" font-family="sans-serif" font-size="14" lengthAdjust="spacing" textLength="281" x="353.5" y="259.5576">printIPAddresses(packet : u_char*) : void</text><ellipse cx="344.5" cy="272.5078" fill="#84BE84" rx="3" ry="3" style="stroke:#038048;stroke-width:1.0;"/><text fill="#000000" font-family="sans-serif" font-size="14" lengthAdjust="spacing" textLength="297" x="353.5" y="275.8545">printPortAddresses(packet : u_char*) : void</text><ellipse cx="344.5" cy="288.8047" fill="#84BE84" rx="3" ry="3" style="stroke:#038048;stroke-width:1.0;"/><text fill="#000000" font-family="sans-serif" font-size="14" lengthAdjust="spacing" textLength="309" x="353.5" y="292.1514">printData(packet : u_char*, length : int) : void</text><text fill="#000000" font-family="sans-serif" font-size="14" lengthAdjust="spacing" text-decoration="underline" textLength="560" x="353.5" y="308.4482">gotPacketWrapper(user : u_char*, header : pcap_pkthdr*, packet : u_char*) : void</text><text fill="#000000" font-family="sans-serif" font-size="14" lengthAdjust="spacing" text-decoration="underline" textLength="138" x="353.5" y="324.7451">listInterfaces() : void</text><text fill="#000000" font-family="sans-serif" font-size="14" lengthAdjust="spacing" text-decoration="underline" textLength="209" x="353.5" y="341.042">handleSignal(signal : int) : void</text></g><!--class SnifferOptions--><g id="elem_SnifferOptions"><rect codeLine="31" fill="#F1F1F1" height="292.4531" id="SnifferOptions" rx="2.5" ry="2.5" style="stroke:#181818;stroke-width:0.5;" width="192" x="992.5" y="31.5"/><ellipse cx="1035.85" cy="47.5" fill="#ADD1B2" rx="11" ry="11" style="stroke:#181818;stroke-width:1.0;"/><path d="M1038.8188,53.1406 Q1038.2406,53.4375 1037.6,53.5781 Q1036.9594,53.7344 1036.2563,53.7344 Q1033.7563,53.7344 1032.4281,52.0938 Q1031.1156,50.4375 1031.1156,47.3125 Q1031.1156,44.1875 1032.4281,42.5313 Q1033.7563,40.875 1036.2563,40.875 Q1036.9594,40.875 1037.6,41.0313 Q1038.2563,41.1875 1038.8188,41.4844 L1038.8188,44.2031 Q1038.1938,43.625 1037.6,43.3594 Q1037.0063,43.0781 1036.3813,43.0781 Q1035.0375,43.0781 1034.35,44.1563 Q1033.6625,45.2188 1033.6625,47.3125 Q1033.6625,49.4063 1034.35,50.4844 Q1035.0375,51.5469 1036.3813,51.5469 Q1037.0063,51.5469 1037.6,51.2813 Q1038.1938,51 1038.8188,50.4219 L1038.8188,53.1406 Z " fill="#000000"/><text fill="#000000" font-family="sans-serif" font-size="14" lengthAdjust="spacing" textLength="97" x="1056.15" y="52.3467">SnifferOptions</text><line style="stroke:#181818;stroke-width:0.5;" x1="993.5" x2="1183.5" y1="63.5" y2="63.5"/><rect fill="none" height="6" style="stroke:#C82930;stroke-width:1.0;" width="6" x="1000.5" y="74.1484"/><text fill="#000000" font-family="sans-serif" font-size="14" lengthAdjust="spacing" textLength="112" x="1012.5" y="80.4951">interface : string</text><rect fill="none" height="6" style="stroke:#C82930;stroke-width:1.0;" width="6" x="1000.5" y="90.4453"/><text fill="#000000" font-family="sans-serif" font-size="14" lengthAdjust="spacing" textLength="58" x="1012.5" y="96.792">port : int</text><rect fill="none" height="6" style="stroke:#C82930;stroke-width:1.0;" width="6" x="1000.5" y="106.7422"/><text fill="#000000" font-family="sans-serif" font-size="14" lengthAdjust="spacing" textLength="65" x="1012.5" y="113.0889">tcp : bool</text><rect fill="none" height="6" style="stroke:#C82930;stroke-width:1.0;" width="6" x="1000.5" y="123.0391"/><text fill="#000000" font-family="sans-serif" font-size="14" lengthAdjust="spacing" textLength="70" x="1012.5" y="129.3857">udp : bool</text><rect fill="none" height="6" style="stroke:#C82930;stroke-width:1.0;" width="6" x="1000.5" y="139.3359"/><text fill="#000000" font-family="sans-serif" font-size="14" lengthAdjust="spacing" textLength="65" x="1012.5" y="145.6826">arp : bool</text><rect fill="none" height="6" style="stroke:#C82930;stroke-width:1.0;" width="6" x="1000.5" y="155.6328"/><text fill="#000000" font-family="sans-serif" font-size="14" lengthAdjust="spacing" textLength="85" x="1012.5" y="161.9795">icmp4 : bool</text><rect fill="none" height="6" style="stroke:#C82930;stroke-width:1.0;" width="6" x="1000.5" y="171.9297"/><text fill="#000000" font-family="sans-serif" font-size="14" lengthAdjust="spacing" textLength="85" x="1012.5" y="178.2764">icmp6 : bool</text><rect fill="none" height="6" style="stroke:#C82930;stroke-width:1.0;" width="6" x="1000.5" y="188.2266"/><text fill="#000000" font-family="sans-serif" font-size="14" lengthAdjust="spacing" textLength="77" x="1012.5" y="194.5732">igmp : bool</text><rect fill="none" height="6" style="stroke:#C82930;stroke-width:1.0;" width="6" x="1000.5" y="204.5234"/><text fill="#000000" font-family="sans-serif" font-size="14" lengthAdjust="spacing" textLength="68" x="1012.5" y="210.8701">mld : bool</text><rect fill="none" height="6" style="stroke:#C82930;stroke-width:1.0;" width="6" x="1000.5" y="220.8203"/><text fill="#000000" font-family="sans-serif" font-size="14" lengthAdjust="spacing" textLength="70" x="1012.5" y="227.167">ndp : bool</text><rect fill="none" height="6" style="stroke:#C82930;stroke-width:1.0;" width="6" x="1000.5" y="237.1172"/><text fill="#000000" font-family="sans-serif" font-size="14" lengthAdjust="spacing" textLength="61" x="1012.5" y="243.4639">num : int</text><rect fill="none" height="6" style="stroke:#C82930;stroke-width:1.0;" width="6" x="1000.5" y="253.4141"/><text fill="#000000" font-family="sans-serif" font-size="14" lengthAdjust="spacing" textLength="107" x="1012.5" y="259.7607">portSource : int</text><rect fill="none" height="6" style="stroke:#C82930;stroke-width:1.0;" width="6" x="1000.5" y="269.7109"/><text fill="#000000" font-family="sans-serif" font-size="14" lengthAdjust="spacing" textLength="137" x="1012.5" y="276.0576">portDestination : int</text><rect fill="none" height="6" style="stroke:#C82930;stroke-width:1.0;" width="6" x="1000.5" y="286.0078"/><text fill="#000000" font-family="sans-serif" font-size="14" lengthAdjust="spacing" textLength="166" x="1012.5" y="292.3545">interfaceSpecified : bool</text><rect fill="none" height="6" style="stroke:#C82930;stroke-width:1.0;" width="6" x="1000.5" y="302.3047"/><text fill="#000000" font-family="sans-serif" font-size="14" lengthAdjust="spacing" textLength="73" x="1012.5" y="308.6514">help : bool</text><line style="stroke:#181818;stroke-width:0.5;" x1="993.5" x2="1183.5" y1="315.9531" y2="315.9531"/></g><!--link ArgParser to Cmuchator--><g id="link_ArgParser_Cmuchator"><path codeLine="49" d="M254.06,177.5 C278.74,177.5 305.63,177.5 333.3,177.5 " fill="none" id="ArgParser-Cmuchator" style="stroke:#181818;stroke-width:1.0;"/><polygon fill="#000000" points="271.25,166.0664,280.2951,169.0053,280.2951,163.1275,271.25,166.0664" style="stroke:#000000;stroke-width:1.0;"/><text fill="#000000" font-family="sans-serif" font-size="13" lengthAdjust="spacing" textLength="30" x="285.25" y="170.5669">uses</text><text fill="#000000" font-family="sans-serif" font-size="13" lengthAdjust="spacing" textLength="8" x="261.8332" y="174.1263">1</text><text fill="#000000" font-family="sans-serif" font-size="13" lengthAdjust="spacing" textLength="8" x="317.4056" y="174.3649">1</text></g><!--reverse link Cmuchator to SnifferOptions--><g id="link_Cmuchator_SnifferOptions"><path codeLine="50" d="M931.75,177.5 C957.45,177.5 970.05,177.5 992.12,177.5 " fill="none" id="Cmuchator-backto-SnifferOptions" style="stroke:#181818;stroke-width:1.0;"/><polygon fill="#181818" points="919.75,177.5,925.75,181.5,931.75,177.5,925.75,173.5,919.75,177.5" style="stroke:#181818;stroke-width:1.0;"/><polygon fill="#000000" points="947,166.0664,937.9549,163.1275,937.9549,169.0053,947,166.0664" style="stroke:#000000;stroke-width:1.0;"/><text fill="#000000" font-family="sans-serif" font-size="13" lengthAdjust="spacing" textLength="23" x="951" y="170.5669">has</text><text fill="#000000" font-family="sans-serif" font-size="13" lengthAdjust="spacing" textLength="8" x="927.6457" y="174.3649">1</text><text fill="#000000" font-family="sans-serif" font-size="13" lengthAdjust="spacing" textLength="8" x="976.4347" y="173.9804">1</text></g><!--SRC=[bLHDQzmm4Btlhr1pKbpxK0WzxA4G6W8vX2vi88TGZ2h9jeWi2McSIqX_UqUABTVQBJI-I7vwCs- -f4ymo56IrbWZszsEQnO2kVRzWVaWFNdT4VnU0p1G_8suY59be2PyO9vKJpyloPuSZUewwNyuKDQ4hSaWjQEHz6ALsBqj4j_72Js0NIGQOj-jpxjhoC2Cq19F7MUkXMg6iuuo0V0q-rq8dTA0YUn90AzCdz2sJSldbKt_fNuvCt-lr0LYGjmcvxJGg36N_9DJBum2BKwqjQx4UWi7nfybq2aaWQcDTQzgB2iJ2KdbSCym25zZVo9vvKLtlwpLipk70SqE7zGeiNIZex3ia1ltBqmNKIIpUyQlXV0o11deEPtIuExmCVx1UlYOnGq3TaAiYPQcXm4Hf6pCygpaiZvwvXmsy7-gMvqlxwbthGBS6MnnnxWishnUYpJEHzKRfcb8In5nlYhRWSptHIqIszbkYCD2llkQ0U3kxpbeo2GAWFa2K7nqLwVGrmBgny9kr68Bc5BAJECck1ZjqKu-vR65Rt0kbM4nxSrPplpe95UTaeLcV78M1AkuFZKNNov8esK7JTgkpnns58UEV2kuLUDLFypieWrxR66q-0C0]--></g></svg>