<svg version="1.1" xmlns="http://www.w3.org/2000/svg" viewBox="0 0 377 559" width="377" height="559">
  <!-- svg-source:excalidraw -->
  
  <defs>
    <style class="style-fonts">
      @font-face {
        font-family: "Virgil";
        src: url("https://excalidraw.com/Virgil.woff2");
      }
      @font-face {
        font-family: "Cascadia";
        src: url("https://excalidraw.com/Cascadia.woff2");
      }
      @font-face {
        font-family: "Assistant";
        src: url("https://excalidraw.com/Assistant-Regular.woff2");
      }
    </style>
    
  </defs>
  <rect x="0" y="0" width="377" height="559" fill="#ffffff"></rect><g stroke-linecap="round" transform="translate(10 47) rotate(0 178.5 251)"><path d="M32 0 C119.09 -3.81, 203.98 -1.71, 325 0 C344.4 1.54, 354.33 12.06, 357 32 C353.97 138.16, 353.27 243.92, 357 470 C356.76 491.58, 345.61 503.98, 325 502 C237.51 500.67, 148.98 497.56, 32 502 C11.48 499.09, 1.03 491.26, 0 470 C1.54 337.47, 0.56 205.52, 0 32 C1.74 13.43, 8.72 -0.79, 32 0" stroke="none" stroke-width="0" fill="#b2f2bb"></path><path d="M32 0 C109.47 -0.07, 186.85 -0.21, 325 0 M32 0 C146.2 -0.7, 260.86 -0.43, 325 0 M325 0 C345.45 0.8, 357.53 11.59, 357 32 M325 0 C347.82 1.11, 358.18 9.28, 357 32 M357 32 C357.17 176.57, 358.12 322.32, 357 470 M357 32 C354.59 158.94, 355.32 286.52, 357 470 M357 470 C355.22 491.38, 344.93 503.65, 325 502 M357 470 C358.36 491.82, 347.24 503.13, 325 502 M325 502 C235.73 501.24, 144.51 502.18, 32 502 M325 502 C228.4 502.1, 131.58 501.49, 32 502 M32 502 C11.82 501.79, 1.65 490.28, 0 470 M32 502 C10.54 504.13, 1.58 492.84, 0 470 M0 470 C-0.59 332.87, -0.82 195.15, 0 32 M0 470 C1.69 368.55, 2.48 267.44, 0 32 M0 32 C-0.19 9.84, 9.25 -0.36, 32 0 M0 32 C0.5 12.49, 9.71 1.64, 32 0" stroke="#2f9e44" stroke-width="2" fill="none"></path></g><g transform="translate(11 10) rotate(0 81.61666870117188 12.5)"><text x="0" y="17.52" font-family="Virgil, Segoe UI Emoji" font-size="20px" fill="#2f9e44" text-anchor="start" style="white-space: pre;" direction="ltr" dominant-baseline="alphabetic">Data Link Layer</text></g><g stroke-linecap="round" transform="translate(22.5 97) rotate(0 167 221)"><path d="M32 0 C109.45 3.48, 187.5 3.54, 302 0 C323.77 -2.25, 332.13 10.85, 334 32 C332.75 151.67, 332.07 273.22, 334 410 C333.14 431.2, 320.76 439.11, 302 442 C213.22 440.86, 121.8 437.79, 32 442 C9.97 440.08, -1.8 431.14, 0 410 C5.74 318.32, 3.59 224.81, 0 32 C1.9 9.3, 9.39 -3.4, 32 0" stroke="none" stroke-width="0" fill="#ffec99"></path><path d="M32 0 C103.13 0.25, 170.95 -1.6, 302 0 M32 0 C106.34 2.47, 180.49 1.6, 302 0 M302 0 C322.17 1.65, 333.84 8.69, 334 32 M302 0 C323.14 1.94, 333.51 10.72, 334 32 M334 32 C336.28 144.33, 335.91 258.28, 334 410 M334 32 C335.4 174.79, 335.03 317.89, 334 410 M334 410 C335.47 429.69, 324.16 443.35, 302 442 M334 410 C335.11 433.18, 323.27 440.64, 302 442 M302 442 C244.82 441.53, 186.19 443.51, 32 442 M302 442 C218.43 442.17, 136.26 441.05, 32 442 M32 442 C9.62 440.88, 1.66 432.88, 0 410 M32 442 C8.9 442.53, 0.2 430.36, 0 410 M0 410 C-2.47 289.51, -1.51 169.6, 0 32 M0 410 C-0.05 261.75, -0.48 113.29, 0 32 M0 32 C-1.02 8.93, 10.46 -1.26, 32 0 M0 32 C-0.74 11.39, 9.11 1.04, 32 0" stroke="#f08c00" stroke-width="2" fill="none"></path></g><g transform="translate(27.883331298828125 63) rotate(0 70.4749984741211 12.5)"><text x="0" y="17.52" font-family="Virgil, Segoe UI Emoji" font-size="20px" fill="#f08c00" text-anchor="start" style="white-space: pre;" direction="ltr" dominant-baseline="alphabetic">Network Layer</text></g><g stroke-linecap="round" transform="translate(35.5 147.5) rotate(0 155 189.5)"><path d="M32 0 C125.74 0.96, 219.91 1, 278 0 C297.21 -3.47, 312.04 9.88, 310 32 C311.24 134.52, 312.91 235.39, 310 347 C309.78 371.57, 298.82 381.62, 278 379 C196.7 374.57, 110.39 373.31, 32 379 C9.9 379.46, 3.38 369.5, 0 347 C-5.36 238.78, -1.03 134.91, 0 32 C-3.02 8.61, 12.02 -0.92, 32 0" stroke="none" stroke-width="0" fill="#ffc9c9"></path><path d="M32 0 C114.01 1.5, 199.45 -1.12, 278 0 M32 0 C110.61 -0.55, 188.96 -0.11, 278 0 M278 0 C298.09 1.75, 311.54 11.45, 310 32 M278 0 C300.8 0.07, 308.83 8.37, 310 32 M310 32 C311.26 126.69, 311.66 222.82, 310 347 M310 32 C308.72 118.64, 308.6 204.87, 310 347 M310 347 C309.8 368.75, 299.27 379.42, 278 379 M310 347 C309.08 370.55, 299.52 381, 278 379 M278 379 C199.03 377.21, 120.1 378.54, 32 379 M278 379 C213.15 377.87, 149.4 377.51, 32 379 M32 379 C11.19 379.76, -1.87 369.64, 0 347 M32 379 C10.45 381.11, 1.41 367.1, 0 347 M0 347 C0.91 223.61, 1.41 101.47, 0 32 M0 347 C0.59 263.32, 1.02 179.83, 0 32 M0 32 C1.99 12.24, 12.19 0.56, 32 0 M0 32 C-2.29 11.84, 12.72 -1.41, 32 0" stroke="#e03131" stroke-width="2" fill="none"></path></g><g transform="translate(41.025001525878906 112) rotate(0 81.6500015258789 12.5)"><text x="0" y="17.52" font-family="Virgil, Segoe UI Emoji" font-size="20px" fill="#e03131" text-anchor="start" style="white-space: pre;" direction="ltr" dominant-baseline="alphabetic">Transport Layer</text></g></svg>