<?xml version="1.0" encoding="us-ascii" standalone="no"?><svg xmlns="http://www.w3.org/2000/svg" xmlns:xlink="http://www.w3.org/1999/xlink" contentStyleType="text/css" height="922px" preserveAspectRatio="none" style="width:1029px;height:922px;background:#FFFFFF;" version="1.1" viewBox="0 0 1029 922" width="1029px" zoomAndPan="magnify"><defs/><g><rect fill="none" height="480.6641" style="stroke:#000000;stroke-width:1.5;" width="878" x="134.5" y="344.2266"/><rect fill="none" height="117.5313" style="stroke:#000000;stroke-width:1.5;" width="571" x="366.5" y="658.2266"/><line style="stroke:#181818;stroke-width:0.5;stroke-dasharray:5.0,5.0;" x1="24" x2="24" y1="81.2969" y2="841.8906"/><line style="stroke:#181818;stroke-width:0.5;stroke-dasharray:5.0,5.0;" x1="172.5" x2="172.5" y1="81.2969" y2="841.8906"/><line style="stroke:#181818;stroke-width:0.5;stroke-dasharray:5.0,5.0;" x1="325.5" x2="325.5" y1="81.2969" y2="841.8906"/><line style="stroke:#181818;stroke-width:0.5;stroke-dasharray:5.0,5.0;" x1="421.5" x2="421.5" y1="81.2969" y2="841.8906"/><line style="stroke:#181818;stroke-width:0.5;stroke-dasharray:5.0,5.0;" x1="903.5" x2="903.5" y1="81.2969" y2="841.8906"/><line style="stroke:#181818;stroke-width:0.5;stroke-dasharray:5.0,5.0;" x1="969.5" x2="969.5" y1="81.2969" y2="841.8906"/><text fill="#000000" font-family="sans-serif" font-size="14" lengthAdjust="spacing" textLength="32" x="5" y="77.9951">User</text><ellipse cx="24" cy="13.5" fill="#E2E2F0" rx="8" ry="8" style="stroke:#181818;stroke-width:0.5;"/><path d="M24,21.5 L24,48.5 M11,29.5 L37,29.5 M24,48.5 L11,63.5 M24,48.5 L37,63.5 " fill="none" style="stroke:#181818;stroke-width:0.5;"/><text fill="#000000" font-family="sans-serif" font-size="14" lengthAdjust="spacing" textLength="32" x="5" y="853.8857">User</text><ellipse cx="24" cy="865.6875" fill="#E2E2F0" rx="8" ry="8" style="stroke:#181818;stroke-width:0.5;"/><path d="M24,873.6875 L24,900.6875 M11,881.6875 L37,881.6875 M24,900.6875 L11,915.6875 M24,900.6875 L37,915.6875 " fill="none" style="stroke:#181818;stroke-width:0.5;"/><rect fill="#E2E2F0" height="30.2969" rx="2.5" ry="2.5" style="stroke:#181818;stroke-width:0.5;" width="57" x="144.5" y="50"/><text fill="#000000" font-family="sans-serif" font-size="14" lengthAdjust="spacing" textLength="43" x="151.5" y="69.9951">main()</text><rect fill="#E2E2F0" height="30.2969" rx="2.5" ry="2.5" style="stroke:#181818;stroke-width:0.5;" width="57" x="144.5" y="840.8906"/><text fill="#000000" font-family="sans-serif" font-size="14" lengthAdjust="spacing" textLength="43" x="151.5" y="860.8857">main()</text><rect fill="#E2E2F0" height="30.2969" rx="2.5" ry="2.5" style="stroke:#181818;stroke-width:0.5;" width="81" x="285.5" y="50"/><text fill="#000000" font-family="sans-serif" font-size="14" lengthAdjust="spacing" textLength="67" x="292.5" y="69.9951">ArgParser</text><rect fill="#E2E2F0" height="30.2969" rx="2.5" ry="2.5" style="stroke:#181818;stroke-width:0.5;" width="81" x="285.5" y="840.8906"/><text fill="#000000" font-family="sans-serif" font-size="14" lengthAdjust="spacing" textLength="67" x="292.5" y="860.8857">ArgParser</text><rect fill="#E2E2F0" height="30.2969" rx="2.5" ry="2.5" style="stroke:#181818;stroke-width:0.5;" width="90" x="376.5" y="50"/><text fill="#000000" font-family="sans-serif" font-size="14" lengthAdjust="spacing" textLength="76" x="383.5" y="69.9951">Cmuchator</text><rect fill="#E2E2F0" height="30.2969" rx="2.5" ry="2.5" style="stroke:#181818;stroke-width:0.5;" width="90" x="376.5" y="840.8906"/><text fill="#000000" font-family="sans-serif" font-size="14" lengthAdjust="spacing" textLength="76" x="383.5" y="860.8857">Cmuchator</text><rect fill="#E2E2F0" height="30.2969" rx="2.5" ry="2.5" style="stroke:#181818;stroke-width:0.5;" width="48" x="879.5" y="50"/><text fill="#000000" font-family="sans-serif" font-size="14" lengthAdjust="spacing" textLength="34" x="886.5" y="69.9951">pcap</text><rect fill="#E2E2F0" height="30.2969" rx="2.5" ry="2.5" style="stroke:#181818;stroke-width:0.5;" width="48" x="879.5" y="840.8906"/><text fill="#000000" font-family="sans-serif" font-size="14" lengthAdjust="spacing" textLength="34" x="886.5" y="860.8857">pcap</text><rect fill="#E2E2F0" height="30.2969" rx="2.5" ry="2.5" style="stroke:#181818;stroke-width:0.5;" width="65" x="937.5" y="50"/><text fill="#000000" font-family="sans-serif" font-size="14" lengthAdjust="spacing" textLength="51" x="944.5" y="69.9951">System</text><rect fill="#E2E2F0" height="30.2969" rx="2.5" ry="2.5" style="stroke:#181818;stroke-width:0.5;" width="65" x="937.5" y="840.8906"/><text fill="#000000" font-family="sans-serif" font-size="14" lengthAdjust="spacing" textLength="51" x="944.5" y="860.8857">System</text><rect fill="#EEEEEE" height="3" style="stroke:#EEEEEE;stroke-width:1.0;" width="1022.5" x="0" y="111.8633"/><line style="stroke:#000000;stroke-width:1.0;" x1="0" x2="1022.5" y1="111.8633" y2="111.8633"/><line style="stroke:#000000;stroke-width:1.0;" x1="0" x2="1022.5" y1="114.8633" y2="114.8633"/><rect fill="#EEEEEE" height="23.1328" style="stroke:#000000;stroke-width:2.0;" width="108" x="457.25" y="101.2969"/><text fill="#000000" font-family="sans-serif" font-size="13" font-weight="bold" lengthAdjust="spacing" textLength="89" x="463.25" y="117.3638">Initialization</text><polygon fill="#181818" points="161,151.5625,171,155.5625,161,159.5625,165,155.5625" style="stroke:#181818;stroke-width:1.0;"/><line style="stroke:#181818;stroke-width:1.0;" x1="24" x2="167" y1="155.5625" y2="155.5625"/><text fill="#000000" font-family="sans-serif" font-size="13" lengthAdjust="spacing" textLength="125" x="31" y="150.4966">execute(argc, argv)</text><polygon fill="#181818" points="958,180.6953,968,184.6953,958,188.6953,962,184.6953" style="stroke:#181818;stroke-width:1.0;"/><line style="stroke:#181818;stroke-width:1.0;" x1="173" x2="964" y1="184.6953" y2="184.6953"/><text fill="#000000" font-family="sans-serif" font-size="13" lengthAdjust="spacing" textLength="258" x="180" y="179.6294">signal(SIGINT, Cmuchator::handleSignal)</text><rect fill="#EEEEEE" height="3" style="stroke:#EEEEEE;stroke-width:1.0;" width="1022.5" x="0" y="213.2617"/><line style="stroke:#000000;stroke-width:1.0;" x1="0" x2="1022.5" y1="213.2617" y2="213.2617"/><line style="stroke:#000000;stroke-width:1.0;" x1="0" x2="1022.5" y1="216.2617" y2="216.2617"/><rect fill="#EEEEEE" height="23.1328" style="stroke:#000000;stroke-width:2.0;" width="190" x="416.25" y="202.6953"/><text fill="#000000" font-family="sans-serif" font-size="13" font-weight="bold" lengthAdjust="spacing" textLength="171" x="422.25" y="218.7622">Command Line Parsing</text><polygon fill="#181818" points="314,252.9609,324,256.9609,314,260.9609,318,256.9609" style="stroke:#181818;stroke-width:1.0;"/><line style="stroke:#181818;stroke-width:1.0;" x1="173" x2="320" y1="256.9609" y2="256.9609"/><text fill="#000000" font-family="sans-serif" font-size="13" lengthAdjust="spacing" textLength="110" x="180" y="251.895">parse(argc, argv)</text><polygon fill="#181818" points="184,282.0938,174,286.0938,184,290.0938,180,286.0938" style="stroke:#181818;stroke-width:1.0;"/><line style="stroke:#181818;stroke-width:1.0;" x1="178" x2="325" y1="286.0938" y2="286.0938"/><text fill="#000000" font-family="sans-serif" font-size="13" lengthAdjust="spacing" textLength="47" x="190" y="281.0278">options</text><rect fill="#EEEEEE" height="3" style="stroke:#EEEEEE;stroke-width:1.0;" width="1022.5" x="0" y="314.6602"/><line style="stroke:#000000;stroke-width:1.0;" x1="0" x2="1022.5" y1="314.6602" y2="314.6602"/><line style="stroke:#000000;stroke-width:1.0;" x1="0" x2="1022.5" y1="317.6602" y2="317.6602"/><rect fill="#EEEEEE" height="23.1328" style="stroke:#000000;stroke-width:2.0;" width="129" x="446.75" y="304.0938"/><text fill="#000000" font-family="sans-serif" font-size="13" font-weight="bold" lengthAdjust="spacing" textLength="110" x="452.75" y="320.1606">Check for Help</text><path d="M134.5,344.2266 L198.5,344.2266 L198.5,351.3594 L188.5,361.3594 L134.5,361.3594 L134.5,344.2266 " fill="#EEEEEE" style="stroke:#000000;stroke-width:1.5;"/><rect fill="none" height="480.6641" style="stroke:#000000;stroke-width:1.5;" width="878" x="134.5" y="344.2266"/><text fill="#000000" font-family="sans-serif" font-size="13" font-weight="bold" lengthAdjust="spacing" textLength="19" x="149.5" y="357.2935">alt</text><text fill="#000000" font-family="sans-serif" font-size="11" font-weight="bold" lengthAdjust="spacing" textLength="135" x="213.5" y="356.437">[options.help is true]</text><polygon fill="#181818" points="314,378.4922,324,382.4922,314,386.4922,318,382.4922" style="stroke:#181818;stroke-width:1.0;"/><line style="stroke:#181818;stroke-width:1.0;" x1="173" x2="320" y1="382.4922" y2="382.4922"/><text fill="#000000" font-family="sans-serif" font-size="13" lengthAdjust="spacing" textLength="37" x="180" y="377.4263">help()</text><line style="stroke:#181818;stroke-width:1.0;" x1="173" x2="215" y1="411.625" y2="411.625"/><line style="stroke:#181818;stroke-width:1.0;" x1="215" x2="215" y1="411.625" y2="424.625"/><line style="stroke:#181818;stroke-width:1.0;" x1="174" x2="215" y1="424.625" y2="424.625"/><polygon fill="#181818" points="184,420.625,174,424.625,184,428.625,180,424.625" style="stroke:#181818;stroke-width:1.0;"/><text fill="#000000" font-family="sans-serif" font-size="13" lengthAdjust="spacing" textLength="139" x="180" y="406.5591">return EXIT_SUCCESS</text><line style="stroke:#000000;stroke-width:1.0;stroke-dasharray:2.0,2.0;" x1="134.5" x2="1012.5" y1="433.625" y2="433.625"/><text fill="#000000" font-family="sans-serif" font-size="11" font-weight="bold" lengthAdjust="spacing" textLength="231" x="139.5" y="443.8354">[options.interfaceSpecified is false]</text><polygon fill="#181818" points="958,464.5625,968,468.5625,958,472.5625,962,468.5625" style="stroke:#181818;stroke-width:1.0;"/><line style="stroke:#181818;stroke-width:1.0;" x1="173" x2="964" y1="468.5625" y2="468.5625"/><text fill="#000000" font-family="sans-serif" font-size="13" lengthAdjust="spacing" textLength="221" x="180" y="463.4966">cout &lt;&lt; "Interface not specified..."</text><polygon fill="#181818" points="409.5,493.6953,419.5,497.6953,409.5,501.6953,413.5,497.6953" style="stroke:#181818;stroke-width:1.0;"/><line style="stroke:#181818;stroke-width:1.0;" x1="173" x2="415.5" y1="497.6953" y2="497.6953"/><text fill="#000000" font-family="sans-serif" font-size="13" lengthAdjust="spacing" textLength="91" x="180" y="492.6294">listInterfaces()</text><line style="stroke:#181818;stroke-width:1.0;" x1="173" x2="215" y1="526.8281" y2="526.8281"/><line style="stroke:#181818;stroke-width:1.0;" x1="215" x2="215" y1="526.8281" y2="539.8281"/><line style="stroke:#181818;stroke-width:1.0;" x1="174" x2="215" y1="539.8281" y2="539.8281"/><polygon fill="#181818" points="184,535.8281,174,539.8281,184,543.8281,180,539.8281" style="stroke:#181818;stroke-width:1.0;"/><text fill="#000000" font-family="sans-serif" font-size="13" lengthAdjust="spacing" textLength="139" x="180" y="521.7622">return EXIT_SUCCESS</text><line style="stroke:#000000;stroke-width:1.0;stroke-dasharray:2.0,2.0;" x1="134.5" x2="1012.5" y1="548.8281" y2="548.8281"/><rect fill="#EEEEEE" height="3" style="stroke:#EEEEEE;stroke-width:1.0;" width="1022.5" x="0" y="570.3945"/><line style="stroke:#000000;stroke-width:1.0;" x1="0" x2="1022.5" y1="570.3945" y2="570.3945"/><line style="stroke:#000000;stroke-width:1.0;" x1="0" x2="1022.5" y1="573.3945" y2="573.3945"/><rect fill="#EEEEEE" height="23.1328" style="stroke:#000000;stroke-width:2.0;" width="268" x="377.25" y="559.8281"/><text fill="#000000" font-family="sans-serif" font-size="13" font-weight="bold" lengthAdjust="spacing" textLength="249" x="383.25" y="575.895">Create Cmuchator and Start Loop</text><polygon fill="#181818" points="409.5,610.0938,419.5,614.0938,409.5,618.0938,413.5,614.0938" style="stroke:#181818;stroke-width:1.0;"/><line style="stroke:#181818;stroke-width:1.0;" x1="173" x2="415.5" y1="614.0938" y2="614.0938"/><text fill="#000000" font-family="sans-serif" font-size="13" lengthAdjust="spacing" textLength="98" x="180" y="609.0278">create(options)</text><polygon fill="#181818" points="409.5,639.2266,419.5,643.2266,409.5,647.2266,413.5,643.2266" style="stroke:#181818;stroke-width:1.0;"/><line style="stroke:#181818;stroke-width:1.0;" x1="173" x2="415.5" y1="643.2266" y2="643.2266"/><text fill="#000000" font-family="sans-serif" font-size="13" lengthAdjust="spacing" textLength="37" x="180" y="638.1606">loop()</text><path d="M366.5,658.2266 L443.5,658.2266 L443.5,665.3594 L433.5,675.3594 L366.5,675.3594 L366.5,658.2266 " fill="#EEEEEE" style="stroke:#000000;stroke-width:1.5;"/><rect fill="none" height="117.5313" style="stroke:#000000;stroke-width:1.5;" width="571" x="366.5" y="658.2266"/><text fill="#000000" font-family="sans-serif" font-size="13" font-weight="bold" lengthAdjust="spacing" textLength="32" x="381.5" y="671.2935">loop</text><text fill="#000000" font-family="sans-serif" font-size="11" font-weight="bold" lengthAdjust="spacing" textLength="114" x="458.5" y="670.437">[Packet Handling]</text><polygon fill="#181818" points="891.5,692.4922,901.5,696.4922,891.5,700.4922,895.5,696.4922" style="stroke:#181818;stroke-width:1.0;"/><line style="stroke:#181818;stroke-width:1.0;" x1="421.5" x2="897.5" y1="696.4922" y2="696.4922"/><text fill="#000000" font-family="sans-serif" font-size="13" lengthAdjust="spacing" textLength="458" x="428.5" y="691.4263">pcap_loop(handle, options.num, Cmuchator::gotPacketWrapper, nullptr)</text><polygon fill="#181818" points="432.5,721.625,422.5,725.625,432.5,729.625,428.5,725.625" style="stroke:#181818;stroke-width:1.0;"/><line style="stroke:#181818;stroke-width:1.0;" x1="426.5" x2="902.5" y1="725.625" y2="725.625"/><text fill="#000000" font-family="sans-serif" font-size="13" lengthAdjust="spacing" textLength="259" x="438.5" y="720.5591">gotPacketWrapper(user, header, packet)</text><line style="stroke:#181818;stroke-width:1.0;" x1="421.5" x2="463.5" y1="754.7578" y2="754.7578"/><line style="stroke:#181818;stroke-width:1.0;" x1="463.5" x2="463.5" y1="754.7578" y2="767.7578"/><line style="stroke:#181818;stroke-width:1.0;" x1="422.5" x2="463.5" y1="767.7578" y2="767.7578"/><polygon fill="#181818" points="432.5,763.7578,422.5,767.7578,432.5,771.7578,428.5,767.7578" style="stroke:#181818;stroke-width:1.0;"/><text fill="#000000" font-family="sans-serif" font-size="13" lengthAdjust="spacing" textLength="206" x="428.5" y="749.6919">gotPacket(user, header, packet)</text><line style="stroke:#181818;stroke-width:1.0;" x1="173" x2="215" y1="803.8906" y2="803.8906"/><line style="stroke:#181818;stroke-width:1.0;" x1="215" x2="215" y1="803.8906" y2="816.8906"/><line style="stroke:#181818;stroke-width:1.0;" x1="174" x2="215" y1="816.8906" y2="816.8906"/><polygon fill="#181818" points="184,812.8906,174,816.8906,184,820.8906,180,816.8906" style="stroke:#181818;stroke-width:1.0;"/><text fill="#000000" font-family="sans-serif" font-size="13" lengthAdjust="spacing" textLength="139" x="180" y="798.8247">return EXIT_SUCCESS</text><!--SRC=[bL9VQzim47_tfpZoP4EM3n2QmGXbDNIZu9RjhHpAnHQL9I6TnxPFlvESE5D9o-O7- -JVdplT7Ifs0PuYXSfZOAsqHykm6b7Rkba1HlWYOGb-2lq31j5aV3cLfFqugG75FPEMKqdo2dt67oGeeUvNP1epE8TLjTj1QpLhDFetidOMThigrGuVFkOoOGlqazJ4L6FerHha_QEfCYIKsKT8KVSMJTsrdzklZ-jBSTljWFPWgCjuapFktJZAJxZNbY1TLDi-vJsRBjSNNv-28lK5lPJeVAezpku3gHSuoWpkoFZaYuRFZCsG_ka872QgG9vhIHEfRWhub2WGJy72xVVsyRbxskzlkwuY4sdnrvOf755HvqdfewP3odP4uHH-I-EKcnXkRc3LdfLW7KCyopURpQfGBgqLiT6H5rtylv8pD_Kh43BzPPj6qx4i3jmxbnluLdgLfVNfxitRPOhFgRWKoipL2p7SfSsGsMSWFHUD6AJzJGiWd-TiC2_IUccrdSPYqNh7i_6tWDvJM8ETZF4ScYL1zdnLt6jPFSMa7GWFwUiprbolyQhFEmPa3_yy8g7-0G00]--></g></svg>